<svg xmlns="http://www.w3.org/2000/svg" width="321.5" height="301.03" viewBox="0 0 321.5 301.03"><g><path fill="#cdedf5" fill-opacity=".3" stroke="#0b8e13" stroke-width=".3" d="M20.93 20.75h280v260h-280z"/><g fill="none" stroke="#000" stroke-opacity=".45" stroke-width=".2"><path d="M176.3 452.83v130.5M186.3 452.83v130.5M196.3 452.83v130.5M206.3 452.83v130.5M216.28 452.83v130.5M226.28 452.83v130.5M236.27 452.83v130.5M246.26 452.83v130.5M256.25 452.83v130.5M266.25 452.83v130.5M276.24 452.83v130.5M286.23 452.83v130.5M296.22 452.83v130.5M306.4 463.1H165.94M306.4 473.1H165.94M306.4 483.1H165.94M306.4 493.1H165.94M306.4 503.1H165.94M306.4 513.1H165.94M306.4 523.1H165.94M306.4 533.1H165.94M306.4 543.1H165.94M306.4 553.1H165.94M306.4 563.1H165.94M306.4 573.1H165.94" transform="translate(-83.001502,-82.317059) matrix(1.9801578,0,0,1.9818189,-224.12105,-794.122)"/></g><g fill="none" stroke="#9595ff" color="#000"><path stroke-width=".56" d="M149.75 593.84l.25 130.5M9.75 593.84l.25 130.5" style="isolation:auto;mix-blend-mode:normal" overflow="visible" solid-color="#000000" transform="translate(-83.001502,-82.317059) matrix(1.9987774,0,0,1.990346,84.11855,-1078.8386)"/><path stroke-width=".58" d="M9.45 593.98l140.65-.25M9.73 724.3l140.54-.25" style="isolation:auto;mix-blend-mode:normal" overflow="visible" solid-color="#000000" transform="translate(-83.001502,-82.317059) matrix(1.9987774,0,0,1.990346,84.11855,-1078.8386)"/></g></g></svg>