<svg xmlns="http://www.w3.org/2000/svg" width="1041.42" height="330.92" viewBox="0 0 1041.42 330.92"><defs><marker id="a" orient="auto" overflow="visible"><path fill="red" fill-rule="evenodd" stroke="red" stroke-width=".6930000000000001" d="M-10.7-4.44L1.34-.02-10.7 4.4c1.93-2.6 1.92-6.18 0-8.84z" stroke-linejoin="round"/></marker><marker id="b" orient="auto" overflow="visible"><path fill="red" fill-rule="evenodd" stroke="red" stroke-width=".6930000000000001" d="M-10.7-4.44L1.34-.02-10.7 4.4c1.93-2.6 1.92-6.18 0-8.84z" stroke-linejoin="round"/></marker><marker id="c" orient="auto" overflow="visible"><path fill="red" fill-rule="evenodd" stroke="red" stroke-width=".6930000000000001" d="M-10.7-4.44L1.34-.02-10.7 4.4c1.93-2.6 1.92-6.18 0-8.84z" stroke-linejoin="round"/></marker></defs><g><path fill="#cdedf5" fill-opacity=".3" stroke="#0b8e13" stroke-width=".3" d="M412.7 50.64h280v260h-280z"/><g fill="none" stroke="#000" stroke-opacity=".45" stroke-width=".2"><path d="M176.3 452.83v130.5M186.3 452.83v130.5M196.3 452.83v130.5M206.3 452.83v130.5M216.28 452.83v130.5M226.28 452.83v130.5M236.27 452.83v130.5M246.26 452.83v130.5M256.25 452.83v130.5M266.25 452.83v130.5M276.24 452.83v130.5M286.23 452.83v130.5M296.22 452.83v130.5M306.4 463.1H165.94M306.4 473.1H165.94M306.4 483.1H165.94M306.4 493.1H165.94M306.4 503.1H165.94M306.4 513.1H165.94M306.4 523.1H165.94M306.4 533.1H165.94M306.4 543.1H165.94M306.4 553.1H165.94M306.4 563.1H165.94M306.4 573.1H165.94" transform="translate(-62.6493,-41.689598) translate(392.29958,0) matrix(1.9801578,0,0,1.9818189,-245.01391,-804.86054)"/></g><g fill="none" stroke="#9595ff" color="#000"><path stroke-width=".56" d="M149.75 593.84l.25 130.5M9.75 593.84l.25 130.5" style="isolation:auto;mix-blend-mode:normal" overflow="visible" solid-color="#000000" transform="translate(-62.6493,-41.689598) translate(392.29958,0) matrix(1.9987774,0,0,1.990346,63.225692,-1089.5772)"/><path stroke-width=".58" d="M9.45 593.98l140.65-.25M9.73 724.3l140.54-.25" style="isolation:auto;mix-blend-mode:normal" overflow="visible" solid-color="#000000" transform="translate(-62.6493,-41.689598) translate(392.29958,0) matrix(1.9987774,0,0,1.990346,63.225692,-1089.5772)"/></g></g><text x="81.44" y="78.78" fill="#ff0013" style="line-height:125%" font-size="13.75" font-family="sans-serif" letter-spacing="0" word-spacing="0" transform="translate(-62.6493,-41.689598)"><tspan x="81.44" y="78.78" font-size="22.5">stride</tspan></text><g><path fill="#cdedf5" fill-opacity=".3" stroke="#0b8e13" stroke-width=".3" d="M740.86 50.64h280v260h-280z"/><g fill="none" stroke="#000" stroke-opacity=".45" stroke-width=".2"><path d="M176.3 452.83v130.5M186.3 452.83v130.5M196.3 452.83v130.5M206.3 452.83v130.5M216.28 452.83v130.5M226.28 452.83v130.5M236.27 452.83v130.5M246.26 452.83v130.5M256.25 452.83v130.5M266.25 452.83v130.5M276.24 452.83v130.5M286.23 452.83v130.5M296.22 452.83v130.5M306.4 463.1H165.94M306.4 473.1H165.94M306.4 483.1H165.94M306.4 493.1H165.94M306.4 503.1H165.94M306.4 513.1H165.94M306.4 523.1H165.94M306.4 533.1H165.94M306.4 543.1H165.94M306.4 553.1H165.94M306.4 563.1H165.94M306.4 573.1H165.94" transform="translate(-62.6493,-41.689598) translate(392.29958,-1.0113) matrix(1.9801578,0,0,1.9818189,83.151422,-803.84921)"/></g><g fill="none" stroke="#9595ff" color="#000"><path stroke-width=".56" d="M149.75 593.84l.25 130.5M9.75 593.84l.25 130.5" style="isolation:auto;mix-blend-mode:normal" overflow="visible" solid-color="#000000" transform="translate(-62.6493,-41.689598) translate(392.29958,-1.0113) matrix(1.9987774,0,0,1.990346,391.39102,-1088.5659)"/><path stroke-width=".58" d="M9.45 593.98l140.65-.25M9.73 724.3l140.54-.25" style="isolation:auto;mix-blend-mode:normal" overflow="visible" solid-color="#000000" transform="translate(-62.6493,-41.689598) translate(392.29958,-1.0113) matrix(1.9987774,0,0,1.990346,391.39102,-1088.5659)"/></g></g><g><path fill="#cdedf5" fill-opacity=".3" stroke="#0b8e13" stroke-width=".3" d="M25.73 50.64h280v260h-280z"/><g fill="none" stroke="#000" stroke-opacity=".45" stroke-width=".2"><path d="M176.3 452.83v130.5M186.3 452.83v130.5M196.3 452.83v130.5M206.3 452.83v130.5M216.28 452.83v130.5M226.28 452.83v130.5M236.27 452.83v130.5M246.26 452.83v130.5M256.25 452.83v130.5M266.25 452.83v130.5M276.24 452.83v130.5M286.23 452.83v130.5M296.22 452.83v130.5M306.4 463.1H165.94M306.4 473.1H165.94M306.4 483.1H165.94M306.4 493.1H165.94M306.4 503.1H165.94M306.4 513.1H165.94M306.4 523.1H165.94M306.4 533.1H165.94M306.4 543.1H165.94M306.4 553.1H165.94M306.4 563.1H165.94M306.4 573.1H165.94" transform="translate(-62.6493,-41.689598) translate(5.342924,0.00118709) matrix(1.9801578,0,0,1.9818189,-245.01391,-804.86054)"/></g><g fill="none" stroke="#9595ff" color="#000"><path stroke-width=".56" d="M149.75 593.84l.25 130.5M9.75 593.84l.25 130.5" style="isolation:auto;mix-blend-mode:normal" overflow="visible" solid-color="#000000" transform="translate(-62.6493,-41.689598) translate(5.342924,0.00118709) matrix(1.9987774,0,0,1.990346,63.225692,-1089.5772)"/><path stroke-width=".58" d="M9.45 593.98l140.65-.25M9.73 724.3l140.54-.25" style="isolation:auto;mix-blend-mode:normal" overflow="visible" solid-color="#000000" transform="translate(-62.6493,-41.689598) translate(5.342924,0.00118709) matrix(1.9987774,0,0,1.990346,63.225692,-1089.5772)"/></g></g><g fill="#abf7ac" fill-opacity=".4"><g fill-rule="evenodd" stroke="#19e200" stroke-width=".4"><path d="M39.98 613.95v50M49.98 613.95v50M59.98 613.95v50M69.98 613.95v50" stroke-dasharray="1.21 1.21" transform="translate(-0.54065564,-0.10986324) matrix(1.9780061,0,0,1.9834027,107.90438,-700.98744) translate(134.94285,-224.55844)"/><path d="M80.07 624.15H30.25M80.07 634.15H30.25M80.07 644.15H30.25M80.07 654.15H30.25" stroke-dasharray="1.2 1.2" transform="translate(-0.54065564,-0.10986324) matrix(1.9780061,0,0,1.9834027,107.90438,-700.98744) translate(134.94285,-224.55844)"/></g><path stroke="#0b8e13" stroke-width=".6" d="M165.18 389.4h49.88v49.98h-49.88z" stroke-dasharray="1.8 1.8" transform="translate(-0.54065564,-0.10986324) matrix(1.9780061,0,0,1.9834027,107.90438,-700.98744)"/><g><g fill-rule="evenodd" stroke="#19e200" stroke-width=".4"><path d="M39.98 613.95v50M49.98 613.95v50M59.98 613.95v50M69.98 613.95v50" stroke-dasharray="1.21 1.21" transform="translate(-0.54065564,-0.10986324) matrix(1.9780061,0,0,1.9834027,435.95141,-700.98743) translate(134.94285,-224.55844)"/><path d="M80.07 624.15H30.25M80.07 634.15H30.25M80.07 644.15H30.25M80.07 654.15H30.25" stroke-dasharray="1.2 1.2" transform="translate(-0.54065564,-0.10986324) matrix(1.9780061,0,0,1.9834027,435.95141,-700.98743) translate(134.94285,-224.55844)"/></g><path stroke="#0b8e13" stroke-width=".6" d="M165.18 389.4h49.88v49.98h-49.88z" stroke-dasharray="1.8 1.8" transform="translate(-0.54065564,-0.10986324) matrix(1.9780061,0,0,1.9834027,435.95141,-700.98743)"/></g></g><g><g fill="none" stroke="#19e200" stroke-width=".4"><path d="M39.98 613.95v50M49.98 613.95v50M59.98 613.95v50M69.98 613.95v50M80.07 624.15H30.25M80.07 634.15H30.25M80.07 644.15H30.25M80.07 654.15H30.25" transform="translate(-0.54065564,-0.10986324) translate(154.72515,-283.46316) matrix(1.9780061,0,0,1.9834027,279.47869,-863.28289)"/></g><path fill="#0f0" fill-opacity=".18" stroke="#0b8e13" stroke-width="1.19" d="M493.47 70.86h98.67V170h-98.67z"/><g><g fill="none" stroke="#19e200" stroke-width=".4"><path d="M39.98 613.95v50M49.98 613.95v50M59.98 613.95v50M69.98 613.95v50M80.07 624.15H30.25M80.07 634.15H30.25M80.07 644.15H30.25M80.07 654.15H30.25" transform="translate(-0.54065564,-0.10986324) translate(423.39048,-222.99028) matrix(1.9780061,0,0,1.9834027,279.47869,-863.28289)"/></g><path fill="#0f0" fill-opacity=".18" stroke="#0b8e13" stroke-width="1.19" d="M762.14 131.33h98.67v99.15h-98.66z"/></g></g><g fill="none" stroke="red" stroke-miterlimit="3.6"><path stroke-width="1.14" d="M435.27 70.72l56.34.3" marker-end="url(#a)" transform="translate(-0.54065564,-0.10986324)"/><path stroke-width="1.14" d="M762.2 70.7l.26 59.4" marker-end="url(#b)" transform="translate(-0.54065564,-0.10986324)"/><path stroke-width="1.15" d="M47.15 71.47l58.13 58.1" marker-end="url(#c)" transform="translate(-0.54065564,-0.10986324)"/></g></svg>