<svg xmlns="http://www.w3.org/2000/svg" width="969.72" height="441.5" xmlns:xlink="http://www.w3.org/1999/xlink" viewBox="0 0 969.72 441.5"><defs><marker id="g" orient="auto" overflow="visible"><path fill="#008700" fill-rule="evenodd" stroke="#008700" stroke-width=".6930000000000001" d="M-10.7-4.44L1.34-.02-10.7 4.4c1.93-2.6 1.92-6.18 0-8.84z" stroke-linejoin="round"/></marker><marker id="f" orient="auto" overflow="visible"><path fill="#008700" fill-rule="evenodd" stroke="#008700" stroke-width=".6930000000000001" d="M-10.7-4.44L1.34-.02-10.7 4.4c1.93-2.6 1.92-6.18 0-8.84z" stroke-linejoin="round"/></marker><marker id="b" orient="auto" overflow="visible"><path fill="red" fill-rule="evenodd" stroke="red" stroke-width=".6930000000000001" d="M-10.7-4.44L1.34-.02-10.7 4.4c1.93-2.6 1.92-6.18 0-8.84z" stroke-linejoin="round"/></marker><marker id="c" orient="auto" overflow="visible"><path fill="#0008ff" fill-rule="evenodd" stroke="#0008ff" stroke-width=".6930000000000001" d="M-10.7-4.44L1.34-.02-10.7 4.4c1.93-2.6 1.92-6.18 0-8.84z" stroke-linejoin="round"/></marker><marker id="e" orient="auto" overflow="visible"><path fill="red" fill-rule="evenodd" stroke="red" stroke-width=".6930000000000001" d="M-10.7-4.44L1.34-.02-10.7 4.4c1.93-2.6 1.92-6.18 0-8.84z" stroke-linejoin="round"/></marker></defs><g fill="none" transform="translate(8.0183397,8.5246733) translate(-67.995676,-38.758597)"><path id="a" fill-rule="evenodd" stroke="#000" stroke-opacity=".09" stroke-width=".89" d="M80.44 50.67v401.06"/><use width="100%" height="100%" stroke="#000" stroke-opacity=".09" transform="translate(20.004219,-1e-7)" xlink:href="#a"/><use width="100%" height="100%" stroke="#000" stroke-opacity=".09" transform="translate(40.00844,-1e-7)" xlink:href="#a"/><use width="100%" height="100%" stroke="#000" stroke-opacity=".09" transform="translate(60.012659,-1e-7)" xlink:href="#a"/><use width="100%" height="100%" stroke="#000" stroke-opacity=".09" transform="translate(80.01688,-1e-7)" xlink:href="#a"/><use width="100%" height="100%" stroke="#000" stroke-opacity=".09" transform="translate(100.0211,-1e-7)" xlink:href="#a"/><use width="100%" height="100%" stroke="#000" stroke-opacity=".09" transform="translate(120.02532,-1e-7)" xlink:href="#a"/><use width="100%" height="100%" stroke="#000" stroke-opacity=".09" transform="translate(140.02954,-1e-7)" xlink:href="#a"/><use width="100%" height="100%" stroke="#000" stroke-opacity=".09" transform="translate(160.03376,-1e-7)" xlink:href="#a"/><use width="100%" height="100%" stroke="#000" stroke-opacity=".09" transform="translate(180.03798,-1e-7)" xlink:href="#a"/><use width="100%" height="100%" stroke="#000" stroke-opacity=".09" transform="translate(200.04219,-1e-7)" xlink:href="#a"/><use width="100%" height="100%" stroke="#000" stroke-opacity=".09" transform="translate(220.04642,-1e-7)" xlink:href="#a"/><use width="100%" height="100%" stroke="#000" stroke-opacity=".09" transform="translate(240.05064,-1e-7)" xlink:href="#a"/><use width="100%" height="100%" stroke="#000" stroke-opacity=".09" transform="translate(260.05486,-1e-7)" xlink:href="#a"/><use width="100%" height="100%" stroke="#000" stroke-opacity=".09" transform="translate(280.05908,-1e-7)" xlink:href="#a"/><use width="100%" height="100%" stroke="#000" stroke-opacity=".09" transform="translate(300.0633,-1e-7)" xlink:href="#a"/><use width="100%" height="100%" stroke="#000" stroke-opacity=".09" transform="translate(320.06752,-1e-7)" xlink:href="#a"/><use width="100%" height="100%" stroke="#000" stroke-opacity=".09" transform="translate(340.07173,-1e-7)" xlink:href="#a"/><use width="100%" height="100%" stroke="#000" stroke-opacity=".09" transform="translate(360.07596,-1e-7)" xlink:href="#a"/><use width="100%" height="100%" stroke="#000" stroke-opacity=".09" transform="translate(380.08018,-1e-7)" xlink:href="#a"/><use width="100%" height="100%" stroke="#000" stroke-opacity=".09" transform="translate(400.0844,-1e-7)" xlink:href="#a"/><use width="100%" height="100%" stroke="#000" stroke-opacity=".09" xlink:href="#a" transform="matrix(0,1,-1,0,531.73074,-9.265916)"/><use width="100%" height="100%" stroke="#000" stroke-opacity=".09" xlink:href="#a" transform="matrix(0,1,-1,0,531.73074,10.731713)"/><use width="100%" height="100%" stroke="#000" stroke-opacity=".09" xlink:href="#a" transform="matrix(0,1,-1,0,531.73074,30.729341)"/><use width="100%" height="100%" stroke="#000" stroke-opacity=".09" xlink:href="#a" transform="matrix(0,1,-1,0,531.73074,50.72697)"/><use width="100%" height="100%" stroke="#000" stroke-opacity=".09" xlink:href="#a" transform="matrix(0,1,-1,0,531.73074,70.724598)"/><use width="100%" height="100%" stroke="#000" stroke-opacity=".09" xlink:href="#a" transform="matrix(0,1,-1,0,531.73074,90.722226)"/><use width="100%" height="100%" stroke="#000" stroke-opacity=".09" xlink:href="#a" transform="matrix(0,1,-1,0,531.73074,110.71986)"/><use width="100%" height="100%" stroke="#000" stroke-opacity=".09" xlink:href="#a" transform="matrix(0,1,-1,0,531.73074,130.71749)"/><use width="100%" height="100%" stroke="#000" stroke-opacity=".09" xlink:href="#a" transform="matrix(0,1,-1,0,531.73074,150.71512)"/><use width="100%" height="100%" stroke="#000" stroke-opacity=".09" xlink:href="#a" transform="matrix(0,1,-1,0,531.73074,170.71274)"/><use width="100%" height="100%" stroke="#000" stroke-opacity=".09" xlink:href="#a" transform="matrix(0,1,-1,0,531.73074,190.71037)"/><use width="100%" height="100%" stroke="#000" stroke-opacity=".09" xlink:href="#a" transform="matrix(0,1,-1,0,531.73074,210.708)"/><use width="100%" height="100%" stroke="#000" stroke-opacity=".09" xlink:href="#a" transform="matrix(0,1,-1,0,531.73074,230.70563)"/><use width="100%" height="100%" stroke="#000" stroke-opacity=".09" xlink:href="#a" transform="matrix(0,1,-1,0,531.73074,250.70326)"/><use width="100%" height="100%" stroke="#000" stroke-opacity=".09" xlink:href="#a" transform="matrix(0,1,-1,0,531.73074,270.70089)"/><use width="100%" height="100%" stroke="#000" stroke-opacity=".09" xlink:href="#a" transform="matrix(0,1,-1,0,531.73074,290.69852)"/><use width="100%" height="100%" stroke="#000" stroke-opacity=".09" xlink:href="#a" transform="matrix(0,1,-1,0,531.73074,310.69614)"/><use width="100%" height="100%" stroke="#000" stroke-opacity=".09" xlink:href="#a" transform="matrix(0,1,-1,0,531.73074,330.69377)"/><use width="100%" height="100%" stroke="#000" stroke-opacity=".09" xlink:href="#a" transform="matrix(0,1,-1,0,531.73074,350.6914)"/><use width="100%" height="100%" stroke="#000" stroke-opacity=".09" xlink:href="#a" transform="matrix(0,1,-1,0,531.73074,370.68903)"/><path stroke="#9595ff" stroke-width="1.05" d="M80.5 50.54l.3 400.37" style="isolation:auto;mix-blend-mode:normal" color="#000" overflow="visible" solid-color="#000000"/><path stroke="#9595ff" stroke-width="1.23" d="M79.98 51.24l401.2-.4" style="isolation:auto;mix-blend-mode:normal" color="#000" overflow="visible" solid-color="#000000"/></g><text x="37.23" y="35.75" fill="#ff0013" style="line-height:125%" transform="translate(8.0183397,8.5246733) matrix(0.93965319,0.34212847,-0.34212847,0.93965319,0,0)" font-size="13.75" font-family="sans-serif" letter-spacing="0" word-spacing="0"><tspan x="37.23" y="35.75" font-size="22.5">offset_input</tspan></text><g fill="none"><g stroke="#19e200" stroke-width="1.01" stroke-dasharray="3.03 3.03"><path d="M200.52 80.46v101M220.52 80.46v101M240.52 80.46v101M260.52 80.46v101M281.02 100.96h-101M281.02 120.96h-101M281.02 140.96h-101M281.02 160.96h-101"/></g><path stroke="#0b8e13" stroke-width="1.2" d="M180.62 81.06h99.8v99.8h-99.8z" stroke-dasharray="3.6 3.6"/></g><g fill="#ffb8be" color="#000"><path d="M181.7 82.27h17.5v17.5h-17.5zM221.66 82.27h17.5v17.5h-17.5zM261.63 82.27h17.5v17.5h-17.5zM181.7 122.18h17.5v17.5h-17.5zM221.66 122.18h17.5v17.5h-17.5zM261.63 122.18h17.5v17.5h-17.5zM181.7 162.1h17.5v17.5h-17.5zM221.66 162.1h17.5v17.5h-17.5zM261.63 162.1h17.5v17.5h-17.5z" style="isolation:auto;mix-blend-mode:normal" overflow="visible" solid-color="#000000"/></g><path fill="none" stroke="red" stroke-width="1.37" stroke-miterlimit="3.6" d="M21.88 23.1l159.54 59.2" marker-end="url(#b)" transform="translate(8.0183397,8.5246733)"/><path fill="none" stroke="#0008ff" stroke-width="1.37" stroke-miterlimit="3.6" d="M179 82.07h41.53" marker-end="url(#c)" transform="translate(8.0183397,8.5246733)"/><text x="170.59" y="64.63" fill="#ff0013" transform="translate(8.0183397,8.5246733) matrix(0.9999998,6.3415873e-4,-6.3415873e-4,0.9999998,0,0)" style="line-height:125%" font-size="13.75" font-family="sans-serif" letter-spacing="0" word-spacing="0"><tspan x="170.59" y="64.63" fill="#00f" font-size="22.5">stride=2</tspan></text><g fill="none" transform="translate(8.0183397,8.5246733) translate(460.52537,-38.758597)"><path id="d" fill-rule="evenodd" stroke="#000" stroke-opacity=".09" stroke-width=".89" d="M80.44 50.67v401.06"/><use width="100%" height="100%" stroke="#000" stroke-opacity=".09" transform="translate(20.004219,-1e-7)" xlink:href="#d"/><use width="100%" height="100%" stroke="#000" stroke-opacity=".09" transform="translate(40.00844,-1e-7)" xlink:href="#d"/><use width="100%" height="100%" stroke="#000" stroke-opacity=".09" transform="translate(60.012659,-1e-7)" xlink:href="#d"/><use width="100%" height="100%" stroke="#000" stroke-opacity=".09" transform="translate(80.01688,-1e-7)" xlink:href="#d"/><use width="100%" height="100%" stroke="#000" stroke-opacity=".09" transform="translate(100.0211,-1e-7)" xlink:href="#d"/><use width="100%" height="100%" stroke="#000" stroke-opacity=".09" transform="translate(120.02532,-1e-7)" xlink:href="#d"/><use width="100%" height="100%" stroke="#000" stroke-opacity=".09" transform="translate(140.02954,-1e-7)" xlink:href="#d"/><use width="100%" height="100%" stroke="#000" stroke-opacity=".09" transform="translate(160.03376,-1e-7)" xlink:href="#d"/><use width="100%" height="100%" stroke="#000" stroke-opacity=".09" transform="translate(180.03798,-1e-7)" xlink:href="#d"/><use width="100%" height="100%" stroke="#000" stroke-opacity=".09" transform="translate(200.04219,-1e-7)" xlink:href="#d"/><use width="100%" height="100%" stroke="#000" stroke-opacity=".09" transform="translate(220.04642,-1e-7)" xlink:href="#d"/><use width="100%" height="100%" stroke="#000" stroke-opacity=".09" transform="translate(240.05064,-1e-7)" xlink:href="#d"/><use width="100%" height="100%" stroke="#000" stroke-opacity=".09" transform="translate(260.05486,-1e-7)" xlink:href="#d"/><use width="100%" height="100%" stroke="#000" stroke-opacity=".09" transform="translate(280.05908,-1e-7)" xlink:href="#d"/><use width="100%" height="100%" stroke="#000" stroke-opacity=".09" transform="translate(300.0633,-1e-7)" xlink:href="#d"/><use width="100%" height="100%" stroke="#000" stroke-opacity=".09" transform="translate(320.06752,-1e-7)" xlink:href="#d"/><use width="100%" height="100%" stroke="#000" stroke-opacity=".09" transform="translate(340.07173,-1e-7)" xlink:href="#d"/><use width="100%" height="100%" stroke="#000" stroke-opacity=".09" transform="translate(360.07596,-1e-7)" xlink:href="#d"/><use width="100%" height="100%" stroke="#000" stroke-opacity=".09" transform="translate(380.08018,-1e-7)" xlink:href="#d"/><use width="100%" height="100%" stroke="#000" stroke-opacity=".09" transform="translate(400.0844,-1e-7)" xlink:href="#d"/><use width="100%" height="100%" stroke="#000" stroke-opacity=".09" xlink:href="#d" transform="matrix(0,1,-1,0,531.73074,-9.265916)"/><use width="100%" height="100%" stroke="#000" stroke-opacity=".09" xlink:href="#d" transform="matrix(0,1,-1,0,531.73074,10.731713)"/><use width="100%" height="100%" stroke="#000" stroke-opacity=".09" xlink:href="#d" transform="matrix(0,1,-1,0,531.73074,30.729341)"/><use width="100%" height="100%" stroke="#000" stroke-opacity=".09" xlink:href="#d" transform="matrix(0,1,-1,0,531.73074,50.72697)"/><use width="100%" height="100%" stroke="#000" stroke-opacity=".09" xlink:href="#d" transform="matrix(0,1,-1,0,531.73074,70.724598)"/><use width="100%" height="100%" stroke="#000" stroke-opacity=".09" xlink:href="#d" transform="matrix(0,1,-1,0,531.73074,90.722226)"/><use width="100%" height="100%" stroke="#000" stroke-opacity=".09" xlink:href="#d" transform="matrix(0,1,-1,0,531.73074,110.71986)"/><use width="100%" height="100%" stroke="#000" stroke-opacity=".09" xlink:href="#d" transform="matrix(0,1,-1,0,531.73074,130.71749)"/><use width="100%" height="100%" stroke="#000" stroke-opacity=".09" xlink:href="#d" transform="matrix(0,1,-1,0,531.73074,150.71512)"/><use width="100%" height="100%" stroke="#000" stroke-opacity=".09" xlink:href="#d" transform="matrix(0,1,-1,0,531.73074,170.71274)"/><use width="100%" height="100%" stroke="#000" stroke-opacity=".09" xlink:href="#d" transform="matrix(0,1,-1,0,531.73074,190.71037)"/><use width="100%" height="100%" stroke="#000" stroke-opacity=".09" xlink:href="#d" transform="matrix(0,1,-1,0,531.73074,210.708)"/><use width="100%" height="100%" stroke="#000" stroke-opacity=".09" xlink:href="#d" transform="matrix(0,1,-1,0,531.73074,230.70563)"/><use width="100%" height="100%" stroke="#000" stroke-opacity=".09" xlink:href="#d" transform="matrix(0,1,-1,0,531.73074,250.70326)"/><use width="100%" height="100%" stroke="#000" stroke-opacity=".09" xlink:href="#d" transform="matrix(0,1,-1,0,531.73074,270.70089)"/><use width="100%" height="100%" stroke="#000" stroke-opacity=".09" xlink:href="#d" transform="matrix(0,1,-1,0,531.73074,290.69852)"/><use width="100%" height="100%" stroke="#000" stroke-opacity=".09" xlink:href="#d" transform="matrix(0,1,-1,0,531.73074,310.69614)"/><use width="100%" height="100%" stroke="#000" stroke-opacity=".09" xlink:href="#d" transform="matrix(0,1,-1,0,531.73074,330.69377)"/><use width="100%" height="100%" stroke="#000" stroke-opacity=".09" xlink:href="#d" transform="matrix(0,1,-1,0,531.73074,350.6914)"/><use width="100%" height="100%" stroke="#000" stroke-opacity=".09" xlink:href="#d" transform="matrix(0,1,-1,0,531.73074,370.68903)"/><path stroke="#9595ff" stroke-width="1.05" d="M80.5 50.54l.3 400.37" style="isolation:auto;mix-blend-mode:normal" color="#000" overflow="visible" solid-color="#000000"/><path stroke="#9595ff" stroke-width="1.23" d="M79.98 51.24l401.2-.4" style="isolation:auto;mix-blend-mode:normal" color="#000" overflow="visible" solid-color="#000000"/></g><text x="341.15" y="-439.45" fill="#ff0013" style="line-height:125%" transform="translate(8.0183397,8.5246733) matrix(0.58450786,0.81138804,-0.81138804,0.58450786,0,0)" font-size="13.75" font-family="sans-serif" letter-spacing="0" word-spacing="0"><tspan x="341.15" y="-439.45" font-size="22.5">offset_output</tspan></text><g fill="none"><g stroke="#19e200" stroke-width="1.01" stroke-dasharray="3.03 3.03"><path d="M669.73 161.3v59M689.73 161.3v59.28M707.63 181.8h-58.4M707.92 201.8h-58.7"/></g><path stroke="#0b8e13" stroke-width=".71" d="M649.58 161.66h59.15v59.15h-59.15z" stroke-dasharray="2.13 2.13"/></g><g fill="#ffb700" fill-opacity=".37"><g color="#000"><path d="M650.9 163.2h17.5v17.5h-17.5zM670.9 163.2h17.5v17.5h-17.5zM690.87 163.2h17.5v17.5h-17.5z" style="isolation:auto;mix-blend-mode:normal" overflow="visible" solid-color="#000000"/></g><g color="#000"><path d="M650.9 183.16h17.5v17.5h-17.5zM670.9 183.16h17.5v17.5h-17.5zM690.87 183.16h17.5v17.5h-17.5z" style="isolation:auto;mix-blend-mode:normal" overflow="visible" solid-color="#000000"/></g><g color="#000"><path d="M650.9 203.12h17.5v17.5h-17.5zM670.9 203.12h17.5v17.5h-17.5zM690.87 203.12h17.5v17.5h-17.5z" style="isolation:auto;mix-blend-mode:normal" overflow="visible" solid-color="#000000"/></g></g><path fill="none" stroke="red" stroke-width="1.37" stroke-miterlimit="3.6" d="M548.75 21.46L651.1 163.74" marker-end="url(#e)" transform="translate(8.0183397,8.5246733)"/><path fill="#008700" fill-rule="evenodd" stroke="#008700" stroke-width="1.37" stroke-miterlimit="3.6" d="M652.02 164.2l38.68 39.6" marker-end="url(#f)" transform="translate(8.0183397,8.5246733)"/><path fill="#008700" fill-rule="evenodd" stroke="#008700" stroke-width="1.37" stroke-miterlimit="3.6" d="M179.85 83.36l79.24 79.56" marker-end="url(#g)" transform="translate(8.0183397,8.5246733)"/><text x="172.32" y="193.37" fill="#008700" fill-opacity=".94" style="line-height:125%" transform="translate(8.0183397,8.5246733) matrix(0.9999998,6.3415873e-4,-6.3415873e-4,0.9999998,0,0)" font-size="13.75" font-family="sans-serif" letter-spacing="0" word-spacing="0"><tspan x="172.32" y="193.37" font-size="22.5">size_input</tspan></text><text x="641.11" y="229.38" fill="#008700" fill-opacity=".94" transform="translate(8.0183397,8.5246733) matrix(0.9999998,6.3415873e-4,-6.3415873e-4,0.9999998,0,0)" style="line-height:125%" font-size="13.75" font-family="sans-serif" letter-spacing="0" word-spacing="0"><tspan x="641.11" y="229.38" font-size="22.5">size_output</tspan></text></svg>