<svg xmlns="http://www.w3.org/2000/svg" width="1392.59" height="684.67" xmlns:xlink="http://www.w3.org/1999/xlink" viewBox="0 0 1392.59 684.67"><g transform="translate(-62.108976,-41.689596)"><text x="81.44" y="78.78" fill="#ff0013" style="line-height:125%" font-size="13.75" font-family="sans-serif" letter-spacing="0" word-spacing="0"><tspan x="81.44" y="78.78" font-size="22.5">zero padding</tspan></text><path fill="#cdedf5" fill-opacity=".3" stroke="#0b8e13" stroke-width=".3" d="M83.04 92.33h278.1v260H83.05z"/><g fill="none" stroke="#000" stroke-opacity=".45" stroke-width=".2"><path d="M176.3 452.83v130.5M186.3 452.83v130.5M196.3 452.83v130.5M206.3 452.83v130.5M216.28 452.83v130.5M226.28 452.83v130.5M236.27 452.83v130.5M246.26 452.83v130.5M256.25 452.83v130.5M266.25 452.83v130.5M276.24 452.83v130.5M286.23 452.83v130.5M296.22 452.83v130.5M306.4 463.1H165.94M306.4 473.1H165.94M306.4 483.1H165.94M306.4 493.1H165.94M306.4 503.1H165.94M306.4 513.1H165.94M306.4 523.1H165.94M306.4 533.1H165.94M306.4 543.1H165.94M306.4 553.1H165.94M306.4 563.1H165.94M306.4 573.1H165.94" transform="matrix(1.9801578,0,0,1.9818189,-245.01391,-804.86054)"/></g><g fill="none" stroke="#9595ff" color="#000"><path stroke-width=".56" d="M149.75 593.84l.25 130.5M9.75 593.84l.25 130.5" style="isolation:auto;mix-blend-mode:normal" overflow="visible" solid-color="#000000" transform="matrix(1.9862215,0,0,1.9903502,63.344583,-1089.5799)"/><path stroke-width=".58" d="M9.45 593.98l140.65-.25M9.73 724.3l140.54-.25" style="isolation:auto;mix-blend-mode:normal" overflow="visible" solid-color="#000000" transform="matrix(1.9862215,0,0,1.9903502,63.344583,-1089.5799)"/></g><g><g fill="none" stroke="#19e200" stroke-width=".4"><path d="M39.98 613.95v50M49.98 613.95v50M59.98 613.95v50M69.98 613.95v50M80.07 624.15H30.25M80.07 634.15H30.25M80.07 644.15H30.25M80.07 654.15H30.25" transform="translate(-56.927851,-242.1067) matrix(1.9780061,0,0,1.9834027,279.47869,-863.28289)"/></g><path fill="#0f0" fill-opacity=".18" stroke="#0b8e13" stroke-width="1.19" d="M282.36 112.32h98.67v99.15h-98.67z"/></g><path fill="#ffb8be" d="M322.4 153.25h18v18h-18z" style="isolation:auto;mix-blend-mode:normal" color="#000" overflow="visible" solid-color="#000000"/><text id="a" x="365.78" y="128.62" fill="#ff0013" style="line-height:125%" font-size="13.75" font-family="sans-serif" letter-spacing="0" word-spacing="0"><tspan x="365.78" y="128.62" style="-inkscape-font-specification:Consolas" font-size="17.5" font-family="Consolas">0</tspan></text><text x="365.78" y="148.23" fill="#ff0013" style="line-height:125%" font-size="13.75" font-family="sans-serif" letter-spacing="0" word-spacing="0"><tspan x="365.78" y="148.23" style="-inkscape-font-specification:Consolas" font-size="17.5" font-family="Consolas">0</tspan></text><text x="365.78" y="167.83" fill="#ff0013" style="line-height:125%" font-size="13.75" font-family="sans-serif" letter-spacing="0" word-spacing="0"><tspan x="365.78" y="167.83" style="-inkscape-font-specification:Consolas" font-size="17.5" font-family="Consolas">0</tspan></text><text x="365.78" y="187.44" fill="#ff0013" style="line-height:125%" font-size="13.75" font-family="sans-serif" letter-spacing="0" word-spacing="0"><tspan x="365.78" y="187.44" style="-inkscape-font-specification:Consolas" font-size="17.5" font-family="Consolas">0</tspan></text><text x="366.13" y="207.05" fill="#ff0013" style="line-height:125%" font-size="13.75" font-family="sans-serif" letter-spacing="0" word-spacing="0"><tspan x="366.13" y="207.05" style="-inkscape-font-specification:Consolas" font-size="17.5" font-family="Consolas">0</tspan></text><path fill="#cdedf5" fill-opacity=".3" stroke="#0b8e13" stroke-width=".3" d="M440.18 92.33h278.1v260H440.2z"/><g fill="none" stroke="#000" stroke-opacity=".45" stroke-width=".2"><path d="M176.3 452.83v130.5M186.3 452.83v130.5M196.3 452.83v130.5M206.3 452.83v130.5M216.28 452.83v130.5M226.28 452.83v130.5M236.27 452.83v130.5M246.26 452.83v130.5M256.25 452.83v130.5M266.25 452.83v130.5M276.24 452.83v130.5M286.23 452.83v130.5M296.22 452.83v130.5M306.4 463.1H165.94M306.4 473.1H165.94M306.4 483.1H165.94M306.4 493.1H165.94M306.4 503.1H165.94M306.4 513.1H165.94M306.4 523.1H165.94M306.4 533.1H165.94M306.4 543.1H165.94M306.4 553.1H165.94M306.4 563.1H165.94M306.4 573.1H165.94" transform="matrix(1.9801578,0,0,1.9818189,112.12897,-804.86054)"/></g><g fill="none" stroke="#9595ff" color="#000"><path stroke-width=".56" d="M149.75 593.84l.25 130.5M9.75 593.84l.25 130.5" style="isolation:auto;mix-blend-mode:normal" overflow="visible" solid-color="#000000" transform="matrix(1.9862215,0,0,1.9903502,420.48746,-1089.5799)"/><path stroke-width=".58" d="M9.45 593.98l140.65-.25M9.73 724.3l140.54-.25" style="isolation:auto;mix-blend-mode:normal" overflow="visible" solid-color="#000000" transform="matrix(1.9862215,0,0,1.9903502,420.48746,-1089.5799)"/></g><g><g fill="none" stroke="#19e200" stroke-width=".4"><path d="M39.98 613.95v50M49.98 613.95v50M59.98 613.95v50M69.98 613.95v50M80.07 624.15H30.25M80.07 634.15H30.25M80.07 644.15H30.25M80.07 654.15H30.25" transform="translate(320.18349,-241.39241) matrix(1.9780061,0,0,1.9834027,279.47869,-863.28289)"/></g><path fill="#0f0" fill-opacity=".18" stroke="#0b8e13" stroke-width="1.19" d="M659.47 113.04h98.67v99.15h-98.67z"/></g><path fill="#ffb8be" d="M699.5 153.96h18v18h-18z" style="isolation:auto;mix-blend-mode:normal" color="#000" overflow="visible" solid-color="#000000"/><text id="b" x="723.24" y="128.97" fill="#ff0013" style="line-height:125%" font-size="13.75" font-family="sans-serif" letter-spacing="0" word-spacing="0"><tspan x="723.24" y="128.97" style="-inkscape-font-specification:Consolas" font-size="17.5" font-family="Consolas">0</tspan></text><use id="c" width="100%" height="100%" transform="translate(357.46848,20.144902)" xlink:href="#a"/><use id="d" width="100%" height="100%" transform="translate(357.46848,39.932775)" xlink:href="#a"/><use id="e" width="100%" height="100%" transform="translate(357.46848,59.720527)" xlink:href="#a"/><use id="f" width="100%" height="100%" transform="translate(357.82562,79.508361)" xlink:href="#a"/><path fill="#cdedf5" fill-opacity=".3" stroke="#0b8e13" stroke-width=".3" d="M83.04 429.47h278.1v260H83.05z"/><g fill="none" stroke="#000" stroke-opacity=".45" stroke-width=".2"><path d="M176.3 452.83v130.5M186.3 452.83v130.5M196.3 452.83v130.5M206.3 452.83v130.5M216.28 452.83v130.5M226.28 452.83v130.5M236.27 452.83v130.5M246.26 452.83v130.5M256.25 452.83v130.5M266.25 452.83v130.5M276.24 452.83v130.5M286.23 452.83v130.5M296.22 452.83v130.5M306.4 463.1H165.94M306.4 473.1H165.94M306.4 483.1H165.94M306.4 493.1H165.94M306.4 503.1H165.94M306.4 513.1H165.94M306.4 523.1H165.94M306.4 533.1H165.94M306.4 543.1H165.94M306.4 553.1H165.94M306.4 563.1H165.94M306.4 573.1H165.94" transform="matrix(1.9801578,0,0,1.9818189,-245.01391,-467.71764)"/></g><g fill="none" stroke="#9595ff" color="#000"><path stroke-width=".56" d="M149.75 593.84l.25 130.5M9.75 593.84l.25 130.5" style="isolation:auto;mix-blend-mode:normal" overflow="visible" solid-color="#000000" transform="matrix(1.9862215,0,0,1.9903502,63.344583,-752.437)"/><path stroke-width=".58" d="M9.45 593.98l140.65-.25M9.73 724.3l140.54-.25" style="isolation:auto;mix-blend-mode:normal" overflow="visible" solid-color="#000000" transform="matrix(1.9862215,0,0,1.9903502,63.344583,-752.437)"/></g><g><g fill="none" stroke="#19e200" stroke-width=".4"><path d="M39.98 613.95v50M49.98 613.95v50M59.98 613.95v50M69.98 613.95v50M80.07 624.15H30.25M80.07 634.15H30.25M80.07 644.15H30.25M80.07 654.15H30.25" transform="translate(-234.71471,55.135169) matrix(1.9780061,0,0,1.9834027,279.47869,-863.28289)"/></g><path fill="#0f0" fill-opacity=".18" stroke="#0b8e13" stroke-width="1.19" d="M104.58 409.57h98.67v99.15h-98.67z"/></g><path fill="#ffb8be" d="M144.86 450.74h18v18h-18z" style="isolation:auto;mix-blend-mode:normal" color="#000" overflow="visible" solid-color="#000000"/><text id="o" x="109.7" y="425.61" fill="#ff0013" style="line-height:125%" font-size="13.75" font-family="sans-serif" letter-spacing="0" word-spacing="0"><tspan x="109.7" y="425.61" style="-inkscape-font-specification:Consolas" font-size="17.5" font-family="Consolas">0</tspan></text><text id="p" x="129.43" y="425.61" fill="#ff0013" style="line-height:125%" font-size="13.75" font-family="sans-serif" letter-spacing="0" word-spacing="0"><tspan x="129.43" y="425.61" style="-inkscape-font-specification:Consolas" font-size="17.5" font-family="Consolas">0</tspan></text><text id="q" x="149.15" y="425.61" fill="#ff0013" style="line-height:125%" font-size="13.75" font-family="sans-serif" letter-spacing="0" word-spacing="0"><tspan x="149.15" y="425.61" style="-inkscape-font-specification:Consolas" font-size="17.5" font-family="Consolas">0</tspan></text><text id="r" x="168.87" y="425.61" fill="#ff0013" style="line-height:125%" font-size="13.75" font-family="sans-serif" letter-spacing="0" word-spacing="0"><tspan x="168.87" y="425.61" style="-inkscape-font-specification:Consolas" font-size="17.5" font-family="Consolas">0</tspan></text><text id="s" x="188.6" y="425.61" fill="#ff0013" style="line-height:125%" font-size="13.75" font-family="sans-serif" letter-spacing="0" word-spacing="0"><tspan x="188.6" y="425.61" style="-inkscape-font-specification:Consolas" font-size="17.5" font-family="Consolas">0</tspan></text><path fill="#cdedf5" fill-opacity=".3" stroke="#0b8e13" stroke-width=".3" d="M440.66 429.47h278.1v260h-278.1z"/><g fill="none" stroke="#000" stroke-opacity=".45" stroke-width=".2"><path d="M176.3 452.83v130.5M186.3 452.83v130.5M196.3 452.83v130.5M206.3 452.83v130.5M216.28 452.83v130.5M226.28 452.83v130.5M236.27 452.83v130.5M246.26 452.83v130.5M256.25 452.83v130.5M266.25 452.83v130.5M276.24 452.83v130.5M286.23 452.83v130.5M296.22 452.83v130.5M306.4 463.1H165.94M306.4 473.1H165.94M306.4 483.1H165.94M306.4 493.1H165.94M306.4 503.1H165.94M306.4 513.1H165.94M306.4 523.1H165.94M306.4 533.1H165.94M306.4 543.1H165.94M306.4 553.1H165.94M306.4 563.1H165.94M306.4 573.1H165.94" transform="matrix(1.9801578,0,0,1.9818189,112.60514,-467.71764)"/></g><g fill="none" stroke="#9595ff" color="#000"><path stroke-width=".56" d="M149.75 593.84l.25 130.5M9.75 593.84l.25 130.5" style="isolation:auto;mix-blend-mode:normal" overflow="visible" solid-color="#000000" transform="matrix(1.9862215,0,0,1.9903502,420.96363,-752.437)"/><path stroke-width=".58" d="M9.45 593.98l140.65-.25M9.73 724.3l140.54-.25" style="isolation:auto;mix-blend-mode:normal" overflow="visible" solid-color="#000000" transform="matrix(1.9862215,0,0,1.9903502,420.96363,-752.437)"/></g><g><g fill="none" stroke="#19e200" stroke-width=".4"><path d="M39.98 613.95v50M49.98 613.95v50M59.98 613.95v50M69.98 613.95v50M80.07 624.15H30.25M80.07 634.15H30.25M80.07 644.15H30.25M80.07 654.15H30.25" transform="translate(320.89425,35.437193) matrix(1.9780061,0,0,1.9834027,279.47869,-863.28289)"/></g><path fill="#0f0" fill-opacity=".18" stroke="#0b8e13" stroke-width="1.19" d="M660.18 389.87h98.67v99.15h-98.67z"/></g><path fill="#ffb8be" d="M699.86 430.8h18v18h-18z" style="isolation:auto;mix-blend-mode:normal" color="#000" overflow="visible" solid-color="#000000"/><text id="g" x="665.77" y="405.25" fill="#ff0013" style="line-height:125%" font-size="13.75" font-family="sans-serif" letter-spacing="0" word-spacing="0"><tspan x="665.77" y="405.25" style="-inkscape-font-specification:Consolas" font-size="17.5" font-family="Consolas">0</tspan></text><use id="h" width="100%" height="100%" xlink:href="#a" transform="translate(320.35363,276.62911)"/><use id="i" width="100%" height="100%" xlink:href="#a" transform="translate(337.85363,276.62911)"/><path fill="#cdedf5" fill-opacity=".3" stroke="#0b8e13" stroke-width=".3" d="M798.28 429.47h278.1v257.86H798.3z"/><g fill="none" stroke="#000" stroke-opacity=".45" stroke-width=".2"><path d="M176.3 452.83v130.5M186.3 452.83v130.5M196.3 452.83v130.5M206.3 452.83v130.5M216.28 452.83v130.5M226.28 452.83v130.5M236.27 452.83v130.5M246.26 452.83v130.5M256.25 452.83v130.5M266.25 452.83v130.5M276.24 452.83v130.5M286.23 452.83v130.5M296.22 452.83v130.5M306.4 463.1H165.94M306.4 473.1H165.94M306.4 483.1H165.94M306.4 493.1H165.94M306.4 503.1H165.94M306.4 513.1H165.94M306.4 523.1H165.94M306.4 533.1H165.94M306.4 543.1H165.94M306.4 553.1H165.94M306.4 563.1H165.94M306.4 573.1H165.94" transform="matrix(1.9801578,0,0,1.9708728,470.22424,-462.76098)"/></g><g fill="none" stroke="#9595ff" color="#000"><path stroke-width=".56" d="M149.75 593.84l.25 130.5M9.75 593.84l.25 130.5" style="isolation:auto;mix-blend-mode:normal" overflow="visible" solid-color="#000000" transform="matrix(1.9862266,0,0,1.9740061,778.58232,-742.7374)"/><path stroke-width=".58" d="M9.45 593.98l140.65-.25M9.73 724.3l140.54-.25" style="isolation:auto;mix-blend-mode:normal" overflow="visible" solid-color="#000000" transform="matrix(1.9862266,0,0,1.9740061,778.58232,-742.7374)"/></g><g><g fill="none" stroke="#19e200" stroke-width=".4"><path d="M39.98 613.95v50M49.98 613.95v50M59.98 613.95v50M69.98 613.95v50M80.07 624.15H30.25M80.07 634.15H30.25M80.07 644.15H30.25M80.07 654.15H30.25" transform="matrix(1.000064,0,0,0.98925892,500.07115,257.05429) matrix(1.9780061,0,0,1.9834027,279.47869,-863.28289)"/></g><path fill="#0f0" fill-opacity=".18" stroke="#0b8e13" stroke-width="1.19" d="M339.3 354.43h98.66v99.15H339.3z" transform="matrix(1.000064,0,0,0.98925892,500.07115,257.05429)"/></g><path fill="#ffb8be" d="M879.06 647.9h18v18h-18z" style="isolation:auto;mix-blend-mode:normal" color="#000" overflow="visible" solid-color="#000000"/><path fill="#cdedf5" fill-opacity=".3" stroke="#0b8e13" stroke-width=".3" d="M1156.53 429.47H1434v260h-277.47z"/><g fill="none" stroke="#000" stroke-opacity=".45" stroke-width=".2"><path d="M176.3 452.83v130.5M186.3 452.83v130.5M196.3 452.83v130.5M206.3 452.83v130.5M216.28 452.83v130.5M226.28 452.83v130.5M236.27 452.83v130.5M246.26 452.83v130.5M256.25 452.83v130.5M266.25 452.83v130.5M276.24 452.83v130.5M286.23 452.83v130.5M296.22 452.83v130.5M306.4 463.1H165.94M306.4 473.1H165.94M306.4 483.1H165.94M306.4 493.1H165.94M306.4 503.1H165.94M306.4 513.1H165.94M306.4 523.1H165.94M306.4 533.1H165.94M306.4 543.1H165.94M306.4 553.1H165.94M306.4 563.1H165.94M306.4 573.1H165.94" transform="matrix(1.9801578,0,0,1.9818189,827.84329,-467.71764)"/></g><g fill="none" stroke="#9595ff" color="#000"><path stroke-width=".56" d="M149.75 593.84l.25 130.5M9.75 593.84l.25 130.5" style="isolation:auto;mix-blend-mode:normal" overflow="visible" solid-color="#000000" transform="matrix(1.9808404,0,0,1.990352,1137.0104,-752.43818)"/><path stroke-width=".58" d="M9.45 593.98l140.65-.25M9.73 724.3l140.54-.25" style="isolation:auto;mix-blend-mode:normal" overflow="visible" solid-color="#000000" transform="matrix(1.9808404,0,0,1.990352,1137.0104,-752.43818)"/></g><g><g fill="none" stroke="#19e200" stroke-width=".4"><path d="M39.98 613.95v50M49.98 613.95v50M59.98 613.95v50M69.98 613.95v50M80.07 624.15H30.25M80.07 634.15H30.25M80.07 644.15H30.25M80.07 654.15H30.25" transform="matrix(1.0101777,0,0,0.99994002,794.45228,194.64202) matrix(1.9780061,0,0,1.9834027,279.47869,-863.28289)"/></g><path fill="#0f0" fill-opacity=".18" stroke="#0b8e13" stroke-width="1.19" d="M339.3 354.43h98.66v99.15H339.3z" transform="matrix(1.0101777,0,0,0.99994002,794.45228,194.64202)"/></g><path fill="#ffb8be" d="M1178.1 588.96h18v18h-18z" style="isolation:auto;mix-blend-mode:normal" color="#000" overflow="visible" solid-color="#000000"/><text x="1140.96" y="564.33" fill="#ff0013" style="line-height:125%" font-size="13.75" font-family="sans-serif" letter-spacing="0" word-spacing="0"><tspan x="1140.96" y="564.33" style="-inkscape-font-specification:Consolas" font-size="17.5" font-family="Consolas">0</tspan></text><use width="100%" height="100%" xlink:href="#a" transform="translate(775.18895,455.32358)"/><use width="100%" height="100%" xlink:href="#a" transform="translate(775.18895,474.9328)"/><use width="100%" height="100%" xlink:href="#a" transform="translate(775.18895,494.54203)"/><use width="100%" height="100%" xlink:href="#a" transform="translate(775.54605,514.15127)"/><use id="j" width="100%" height="100%" xlink:href="#b" transform="translate(19.642858,0)"/><use id="k" width="100%" height="100%" xlink:href="#c" transform="translate(19.642858,8.7154309e-6)"/><use id="l" width="100%" height="100%" xlink:href="#d" transform="translate(19.642858,8.7217905e-6)"/><use id="m" width="100%" height="100%" xlink:href="#e" transform="translate(19.642858,8.718477e-6)"/><use id="n" width="100%" height="100%" xlink:href="#f" transform="translate(19.642858,0)"/><use width="100%" height="100%" xlink:href="#g" transform="translate(0,19.145971)"/><use width="100%" height="100%" xlink:href="#h" transform="translate(0,19.145966)"/><use width="100%" height="100%" xlink:href="#i" transform="translate(0,19.145966)"/><use width="100%" height="100%" xlink:href="#b" transform="translate(0.89287335,276.27196)"/><use width="100%" height="100%" xlink:href="#c" transform="translate(0.89283817,275.63017)"/><use width="100%" height="100%" xlink:href="#d" transform="translate(0.89283817,275.71432)"/><use width="100%" height="100%" xlink:href="#e" transform="translate(0.89283817,275.71432)"/><use width="100%" height="100%" xlink:href="#f" transform="translate(0.53569817,275.71432)"/><use width="100%" height="100%" xlink:href="#j" transform="translate(0.89287335,276.27196)"/><use width="100%" height="100%" xlink:href="#k" transform="translate(0.89283817,275.63017)"/><use width="100%" height="100%" xlink:href="#l" transform="translate(0.89283817,275.71432)"/><use width="100%" height="100%" xlink:href="#m" transform="translate(0.89283817,275.71432)"/><use width="100%" height="100%" xlink:href="#n" transform="translate(0.53569817,275.71432)"/><use width="100%" height="100%" xlink:href="#o" transform="translate(734.38095,276.27676)"/><use width="100%" height="100%" xlink:href="#p" transform="translate(734.38095,276.27676)"/><use width="100%" height="100%" xlink:href="#q" transform="translate(734.38095,276.27676)"/><use width="100%" height="100%" xlink:href="#r" transform="translate(734.38095,276.27676)"/><use width="100%" height="100%" xlink:href="#s" transform="translate(734.38095,276.27676)"/></g></svg>